<?xml version="1.0" encoding="utf-8"?>
<!-- Generator: Adobe Illustrator 14.0.0, SVG Export Plug-In . SVG Version: 6.00 Build 43363)  -->
<!DOCTYPE svg PUBLIC "-//W3C//DTD SVG 1.1//EN" "http://www.w3.org/Graphics/SVG/1.1/DTD/svg11.dtd">
<svg version="1.1" id="レイヤー_1" xmlns="http://www.w3.org/2000/svg" xmlns:xlink="http://www.w3.org/1999/xlink" x="0px"
	 y="0px" width="141.732px" height="141.732px" viewBox="0 0 141.732 141.732" enable-background="new 0 0 141.732 141.732"
	 xml:space="preserve">
<g>
	<path fill="#213491" d="M127.64,63.277c-3.064-23.327-19.977-42.283-42.209-48.364L70.078,30.264
		c19.595,0,35.952,13.871,39.79,32.33c-16.244,1.856-30.455,10.399-39.791,22.834C60.741,72.997,46.53,64.449,30.286,62.593
		c3.84-18.459,20.195-32.33,39.792-32.33L54.726,14.913C32.492,20.994,15.585,39.95,12.514,63.277
		c-0.328,2.496-0.501,5.045-0.501,7.633c0,3.463,0.318,6.849,0.901,10.145c3.413-0.932,7.001-1.434,10.708-1.434
		c2.354,0,4.65,0.211,6.891,0.593c13.604,2.325,24.9,11.405,30.311,23.673c0.998,2.259,1.791,4.621,2.366,7.076
		c0.698,2.99,1.081,6.1,1.081,9.302c0,2.849-0.295,5.631-0.853,8.319c-0.032,0.133-0.065,0.262-0.098,0.393h13.511
		c-0.025-0.131-0.065-0.26-0.094-0.393c-0.559-2.688-0.854-5.471-0.854-8.319c0-3.202,0.385-6.31,1.082-9.302
		c0.576-2.455,1.37-4.817,2.366-7.076c5.409-12.268,16.706-21.35,30.308-23.673c2.24-0.382,4.539-0.593,6.889-0.593
		c3.709,0,7.301,0.502,10.715,1.434c0.58-3.296,0.9-6.682,0.9-10.145C128.144,68.322,127.97,65.772,127.64,63.277z"/>
</g>
</svg>
